<svg xmlns="http://www.w3.org/2000/svg" width="2000" height="1560" viewBox="0 0 2000 1560" role="img" aria-labelledby="title desc">
  <title id="title">ReLink initial connection system architecture diagram</title>
  <desc id="desc">Step-by-step architecture diagram for the ReLink initial-connection flow between two clients, central infrastructure (Caddy, Axum signaling server with RendezvousService and PushHub, Redis, coturn), covering startup health check, mailbox creation, secret derivation, WebSocket subscribe, SDP exchange, ICE gathering, and WebRTC peer establishment.</desc>

  <defs>
    <pattern id="grid" width="24" height="24" patternUnits="userSpaceOnUse">
      <path d="M 24 0 L 0 0 0 24" fill="none" stroke="#eef2f7" stroke-width="1"/>
    </pattern>

    <filter id="shadow" x="-10%" y="-10%" width="120%" height="120%">
      <feDropShadow dx="0" dy="3" stdDeviation="4" flood-color="#0f172a" flood-opacity="0.10"/>
    </filter>

    <marker id="arrSlate" markerWidth="10" markerHeight="10" refX="9" refY="5" orient="auto">
      <path d="M 0 0 L 10 5 L 0 10 z" fill="#64748b"/>
    </marker>
    <marker id="arrOrange" markerWidth="10" markerHeight="10" refX="9" refY="5" orient="auto">
      <path d="M 0 0 L 10 5 L 0 10 z" fill="#ea580c"/>
    </marker>
    <marker id="arrBlue" markerWidth="10" markerHeight="10" refX="9" refY="5" orient="auto">
      <path d="M 0 0 L 10 5 L 0 10 z" fill="#2563eb"/>
    </marker>
    <marker id="arrPurple" markerWidth="10" markerHeight="10" refX="9" refY="5" orient="auto">
      <path d="M 0 0 L 10 5 L 0 10 z" fill="#7c3aed"/>
    </marker>
    <marker id="arrGreen" markerWidth="10" markerHeight="10" refX="9" refY="5" orient="auto">
      <path d="M 0 0 L 10 5 L 0 10 z" fill="#15803d"/>
    </marker>
    <marker id="arrTeal" markerWidth="10" markerHeight="10" refX="9" refY="5" orient="auto">
      <path d="M 0 0 L 10 5 L 0 10 z" fill="#0891b2"/>
    </marker>
    <marker id="arrDark" markerWidth="10" markerHeight="10" refX="9" refY="5" orient="auto">
      <path d="M 0 0 L 10 5 L 0 10 z" fill="#166534"/>
    </marker>

    <style>
      .title     { font: 700 30px 'Segoe UI', Arial, sans-serif; fill: #0f172a; }
      .subtitle  { font: 400 14px 'Segoe UI', Arial, sans-serif; fill: #475569; }
      .laneTitle { font: 700 16px 'Segoe UI', Arial, sans-serif; fill: #0f172a; }
      .laneRole  { font: 600 11px 'Segoe UI', Arial, sans-serif; fill: #64748b; letter-spacing: 0.6px; }
      .laneDesc  { font: 400 12px 'Segoe UI', Arial, sans-serif; fill: #334155; }
      .phase     { font: 700 13px 'Segoe UI', Arial, sans-serif; letter-spacing: 1px; }
      .num       { font: 700 13px 'Segoe UI', Arial, sans-serif; fill: #ffffff; }
      .caption   { font: 600 12.5px 'Segoe UI', Arial, sans-serif; fill: #0f172a; }
      .captionSub{ font: 400 11.5px 'Segoe UI', Arial, sans-serif; fill: #475569; }
      .footer    { font: 400 12px 'Segoe UI', Arial, sans-serif; fill: #64748b; }

      .laneClient { fill: #f8fafc; stroke: #0f172a; stroke-width: 2; }
      .laneEdge   { fill: #fff7ed; stroke: #ea580c; stroke-width: 1.8; }
      .laneServer { fill: #eff6ff; stroke: #2563eb; stroke-width: 1.8; }
      .laneRedis  { fill: #ffffff; stroke: #0f172a; stroke-width: 1.8; }
      .laneCoturn { fill: #f0fdfa; stroke: #0d9488; stroke-width: 1.8; }

      .lifeline { fill: none; stroke: #cbd5e1; stroke-width: 1.4; stroke-dasharray: 4 6; }

      .bandSlate  { fill: #f1f5f9; }
      .bandOrange { fill: #fff7ed; }
      .bandBlue   { fill: #eff6ff; }
      .bandPurple { fill: #f5f3ff; }
      .bandGreen  { fill: #ecfdf5; }
      .bandTeal   { fill: #f0fdfa; }
      .bandDark   { fill: #dcfce7; }

      .arrSlate  { fill: none; stroke: #64748b; stroke-width: 2; marker-end: url(#arrSlate); }
      .arrOrange { fill: none; stroke: #ea580c; stroke-width: 2; marker-end: url(#arrOrange); }
      .arrBlue   { fill: none; stroke: #2563eb; stroke-width: 2.2; marker-end: url(#arrBlue); }
      .arrPurple { fill: none; stroke: #7c3aed; stroke-width: 2.2; marker-end: url(#arrPurple); }
      .arrGreen  { fill: none; stroke: #15803d; stroke-width: 2.2; marker-end: url(#arrGreen); }
      .arrTeal   { fill: none; stroke: #0891b2; stroke-width: 2.2; marker-end: url(#arrTeal); }
      .arrDark   { fill: none; stroke: #166534; stroke-width: 3; marker-end: url(#arrDark); marker-start: url(#arrDark); stroke-dasharray: 10 8; }
      .dashed    { stroke-dasharray: 7 6; }

      .badgeSlate  { fill: #64748b; }
      .badgeOrange { fill: #ea580c; }
      .badgeBlue   { fill: #2563eb; }
      .badgePurple { fill: #7c3aed; }
      .badgeGreen  { fill: #15803d; }
      .badgeTeal   { fill: #0891b2; }
      .badgeDark   { fill: #166534; }
    </style>
  </defs>

  <rect width="2000" height="1560" fill="#ffffff"/>
  <rect width="2000" height="1560" fill="url(#grid)"/>

  <text class="title" x="1000" y="46" text-anchor="middle">ReLink — System Architecture &amp; Initial Connection Flow</text>
  <text class="subtitle" x="1000" y="70" text-anchor="middle">Two clients pair through central infrastructure (Caddy · Axum signaling · Redis · coturn) and establish a direct WebRTC peer-to-peer link</text>

  <!-- ============ Lane header component boxes ============ -->

  <!-- Client A -->
  <g filter="url(#shadow)">
    <rect class="laneClient" x="30"  y="100" width="240" height="150" rx="18" ry="18"/>
    <text class="laneRole"  x="150" y="126" text-anchor="middle">INITIATOR</text>
    <text class="laneTitle" x="150" y="150" text-anchor="middle">Client A</text>
    <text class="laneDesc"  x="150" y="176" text-anchor="middle">Flutter UI · FRB bridge</text>
    <text class="laneDesc"  x="150" y="194" text-anchor="middle">ConnectionService</text>
    <text class="laneDesc"  x="150" y="212" text-anchor="middle">Local crypto (AES-GCM,</text>
    <text class="laneDesc"  x="150" y="230" text-anchor="middle">HKDF, SAS) · WebRTCManager</text>
  </g>

  <!-- Caddy -->
  <g filter="url(#shadow)">
    <rect class="laneEdge"  x="370" y="100" width="200" height="150" rx="18" ry="18"/>
    <text class="laneRole"  x="470" y="126" text-anchor="middle">EDGE</text>
    <text class="laneTitle" x="470" y="150" text-anchor="middle">Caddy</text>
    <text class="laneDesc"  x="470" y="176" text-anchor="middle">TLS termination</text>
    <text class="laneDesc"  x="470" y="194" text-anchor="middle">HTTPS + WSS</text>
    <text class="laneDesc"  x="470" y="212" text-anchor="middle">Reverse proxy to</text>
    <text class="laneDesc"  x="470" y="230" text-anchor="middle">signaling server</text>
  </g>

  <!-- Axum signaling -->
  <g filter="url(#shadow)">
    <rect class="laneServer" x="720" y="100" width="300" height="150" rx="18" ry="18"/>
    <text class="laneRole"   x="870" y="126" text-anchor="middle">SIGNALING SERVER (RUST)</text>
    <text class="laneTitle"  x="870" y="150" text-anchor="middle">Axum Router</text>
    <text class="laneDesc"   x="870" y="176" text-anchor="middle">/connection/{init,join,send,recv,close}</text>
    <text class="laneDesc"   x="870" y="194" text-anchor="middle">/ws/:mailbox_id  ·  /health</text>
    <text class="laneDesc"   x="870" y="214" text-anchor="middle">RendezvousService · PushHub</text>
    <text class="laneDesc"   x="870" y="232" text-anchor="middle">(blind rendezvous + WS fan-out)</text>
  </g>

  <!-- Redis -->
  <g filter="url(#shadow)">
    <rect class="laneRedis" x="1150" y="100" width="200" height="150" rx="18" ry="18"/>
    <text class="laneRole"  x="1250" y="126" text-anchor="middle">EPHEMERAL STATE</text>
    <text class="laneTitle" x="1250" y="150" text-anchor="middle">Redis</text>
    <text class="laneDesc"  x="1250" y="176" text-anchor="middle">sig:rendezvous:{token}</text>
    <text class="laneDesc"  x="1250" y="194" text-anchor="middle">sig:mailbox_meta:{id}</text>
    <text class="laneDesc"  x="1250" y="212" text-anchor="middle">sig:mailbox_msgs:{id}</text>
    <text class="laneDesc"  x="1250" y="230" text-anchor="middle">TTL 300 s</text>
  </g>

  <!-- coturn -->
  <g filter="url(#shadow)">
    <rect class="laneCoturn" x="1450" y="100" width="200" height="150" rx="18" ry="18"/>
    <text class="laneRole"   x="1550" y="126" text-anchor="middle">NAT TRAVERSAL</text>
    <text class="laneTitle"  x="1550" y="150" text-anchor="middle">coturn</text>
    <text class="laneDesc"   x="1550" y="176" text-anchor="middle">STUN binding (3478)</text>
    <text class="laneDesc"   x="1550" y="194" text-anchor="middle">TURN fallback (5349)</text>
    <text class="laneDesc"   x="1550" y="212" text-anchor="middle">Discovers server-</text>
    <text class="laneDesc"   x="1550" y="230" text-anchor="middle">reflexive candidates</text>
  </g>

  <!-- Client B -->
  <g filter="url(#shadow)">
    <rect class="laneClient" x="1760" y="100" width="210" height="150" rx="18" ry="18"/>
    <text class="laneRole"   x="1865" y="126" text-anchor="middle">RESPONDER</text>
    <text class="laneTitle"  x="1865" y="150" text-anchor="middle">Client B</text>
    <text class="laneDesc"   x="1865" y="176" text-anchor="middle">Flutter UI · FRB bridge</text>
    <text class="laneDesc"   x="1865" y="194" text-anchor="middle">ConnectionService</text>
    <text class="laneDesc"   x="1865" y="212" text-anchor="middle">Local crypto · SAS</text>
    <text class="laneDesc"   x="1865" y="230" text-anchor="middle">WebRTCManager</text>
  </g>

  <!-- ============ Lifelines ============ -->
  <line class="lifeline" x1="150"  y1="250" x2="150"  y2="1500"/>
  <line class="lifeline" x1="470"  y1="250" x2="470"  y2="1500"/>
  <line class="lifeline" x1="870"  y1="250" x2="870"  y2="1500"/>
  <line class="lifeline" x1="1250" y1="250" x2="1250" y2="1500"/>
  <line class="lifeline" x1="1550" y1="250" x2="1550" y2="1500"/>
  <line class="lifeline" x1="1865" y1="250" x2="1865" y2="1500"/>

  <!-- ============ Phase bands + steps ============ -->

  <!-- Phase 0 : Launch & Health Check (rows at y ~ 290-370) -->
  <rect class="bandSlate" x="20" y="272" width="1960" height="108" rx="10" ry="10" opacity="0.75"/>
  <text class="phase" x="38" y="294" fill="#475569">PHASE 0 · LAUNCH &amp; SERVER CONNECTIVITY</text>

  <!-- Step 1 : A health check -->
  <circle class="badgeSlate" cx="38" cy="322" r="13"/>
  <text class="num" x="38" y="327" text-anchor="middle">1</text>
  <path class="arrSlate" d="M 160 322 L 860 322"/>
  <text class="caption" x="510" y="316" text-anchor="middle">GET /health  (via Caddy) → Axum healthcheck</text>
  <path class="arrSlate dashed" d="M 860 338 L 160 338"/>
  <text class="captionSub" x="510" y="354" text-anchor="middle">200 OK { public_base_url, heartbeat_interval_secs }</text>

  <!-- Step 2 : B health check -->
  <circle class="badgeSlate" cx="38" cy="368" r="13"/>
  <text class="num" x="38" y="373" text-anchor="middle">2</text>
  <path class="arrSlate" d="M 1855 368 L 880 368"/>
  <text class="caption" x="1370" y="362" text-anchor="middle">GET /health  (via Caddy) → 200 OK</text>

  <!-- Phase 1 : Local crypto A -->
  <rect class="bandOrange" x="20" y="388" width="1960" height="52" rx="10" ry="10" opacity="0.8"/>
  <text class="phase" x="38" y="410" fill="#ea580c">PHASE 1 · SECRET DERIVATION (INITIATOR)</text>
  <circle class="badgeOrange" cx="38" cy="428" r="13"/>
  <text class="num" x="38" y="433" text-anchor="middle">3</text>
  <path class="arrOrange" d="M 150 420 C 210 420, 210 440, 160 440"/>
  <text class="caption" x="260" y="425">Client A (local, no network):</text>
  <text class="captionSub" x="260" y="441">generate <tspan font-weight="700">rendezvous_id</tspan> + <tspan font-weight="700">secret</tspan>; HKDF → <tspan font-weight="700">kSig</tspan>, <tspan font-weight="700">kMac</tspan>; derive 4-digit <tspan font-weight="700">SAS verification code</tspan></text>

  <!-- Phase 2 : Mailbox A init + WS subscribe -->
  <rect class="bandBlue" x="20" y="450" width="1960" height="164" rx="10" ry="10" opacity="0.85"/>
  <text class="phase" x="38" y="472" fill="#2563eb">PHASE 2 · INITIATOR MAILBOX CREATION + WEBSOCKET SUBSCRIBE</text>

  <!-- Step 4 : init -->
  <circle class="badgeBlue" cx="38" cy="498" r="13"/>
  <text class="num" x="38" y="503" text-anchor="middle">4</text>
  <path class="arrBlue" d="M 160 498 L 860 498"/>
  <text class="caption" x="510" y="492" text-anchor="middle">POST /connection/init  { rendezvous_id_b64 }</text>

  <!-- Step 5 : redis writes -->
  <circle class="badgeBlue" cx="38" cy="530" r="13"/>
  <text class="num" x="38" y="535" text-anchor="middle">5</text>
  <path class="arrBlue" d="M 880 528 L 1240 528"/>
  <text class="caption" x="1060" y="522" text-anchor="middle">SETEX sig:mailbox_meta:mailboxA · SETEX sig:rendezvous:{token} → mailboxA</text>

  <!-- Step 6 : response -->
  <circle class="badgeBlue" cx="38" cy="562" r="13"/>
  <text class="num" x="38" y="567" text-anchor="middle">6</text>
  <path class="arrBlue dashed" d="M 860 562 L 160 562"/>
  <text class="captionSub" x="510" y="556" text-anchor="middle">{ mailboxA, expires_at_epoch_ms }   — initiator stores mailbox handle</text>

  <!-- Step 7 : ws subscribe A -->
  <circle class="badgePurple" cx="38" cy="594" r="13"/>
  <text class="num" x="38" y="599" text-anchor="middle">7</text>
  <path class="arrPurple" d="M 160 594 L 860 594"/>
  <text class="caption" x="510" y="588" text-anchor="middle">GET /ws/:mailboxA  (HTTP→WSS upgrade) · PushHub subscribes mailboxA</text>

  <!-- Phase 3 : Deep link -->
  <rect class="bandSlate" x="20" y="622" width="1960" height="48" rx="10" ry="10" opacity="0.75"/>
  <text class="phase" x="38" y="644" fill="#475569">PHASE 3 · OUT-OF-BAND DEEP LINK</text>
  <circle class="badgeSlate" cx="38" cy="660" r="13"/>
  <text class="num" x="38" y="665" text-anchor="middle">8</text>
  <path class="arrSlate dashed" d="M 160 660 L 1855 660"/>
  <text class="caption" x="1000" y="654" text-anchor="middle">A shares deep link with B out-of-band:  relink://join?token=&lt;rendezvous_id&gt;#&lt;secret&gt;    ·    A displays SAS</text>

  <!-- Phase 4 : Local crypto B -->
  <rect class="bandOrange" x="20" y="678" width="1960" height="52" rx="10" ry="10" opacity="0.8"/>
  <text class="phase" x="38" y="700" fill="#ea580c">PHASE 4 · SECRET DERIVATION (RESPONDER)</text>
  <circle class="badgeOrange" cx="38" cy="718" r="13"/>
  <text class="num" x="38" y="723" text-anchor="middle">9</text>
  <path class="arrOrange" d="M 1865 710 C 1805 710, 1805 730, 1855 730"/>
  <text class="caption" x="1740" y="715" text-anchor="end">Client B (local): parse URL fragment <tspan font-weight="700">#secret</tspan>;</text>
  <text class="captionSub" x="1740" y="731" text-anchor="end">HKDF → same <tspan font-weight="700">kSig, kMac</tspan>; derive matching <tspan font-weight="700">SAS</tspan></text>

  <!-- Phase 5 : Join + pairing -->
  <rect class="bandBlue" x="20" y="740" width="1960" height="160" rx="10" ry="10" opacity="0.85"/>
  <text class="phase" x="38" y="762" fill="#2563eb">PHASE 5 · RESPONDER JOINS + MAILBOX PAIRING</text>

  <!-- Step 10 : B join -->
  <circle class="badgeBlue" cx="38" cy="786" r="13"/>
  <text class="num" x="38" y="791" text-anchor="middle">10</text>
  <path class="arrBlue" d="M 1855 786 L 880 786"/>
  <text class="caption" x="1370" y="780" text-anchor="middle">POST /connection/join  { token_b64 }</text>

  <!-- Step 11 : redis pair -->
  <circle class="badgeBlue" cx="38" cy="816" r="13"/>
  <text class="num" x="38" y="821" text-anchor="middle">11</text>
  <path class="arrBlue" d="M 880 816 L 1240 816"/>
  <text class="caption" x="1060" y="810" text-anchor="middle">GET+DEL sig:rendezvous:{token} · SETEX sig:mailbox_meta:mailboxB</text>
  <text class="captionSub" x="1060" y="826" text-anchor="middle">update mailboxA.peer = mailboxB · RPUSH sig:mailbox_msgs:mailboxA  (join marker)</text>

  <!-- Step 12 : response to B -->
  <circle class="badgeBlue" cx="38" cy="848" r="13"/>
  <text class="num" x="38" y="853" text-anchor="middle">12</text>
  <path class="arrBlue dashed" d="M 860 848 L 1855 848"/>
  <text class="captionSub" x="1370" y="842" text-anchor="middle">{ mailboxB, expires_at } → responder stores mailbox handle</text>

  <!-- Step 13 : WS push join marker to A -->
  <circle class="badgePurple" cx="38" cy="880" r="13"/>
  <text class="num" x="38" y="885" text-anchor="middle">13</text>
  <path class="arrPurple dashed" d="M 860 880 L 160 880"/>
  <text class="caption" x="510" y="874" text-anchor="middle">PushHub WS push → A :  join marker</text>
  <text class="captionSub" x="510" y="894" text-anchor="middle">triggers &quot;Incoming Connection / Accept&quot; dialog on InitiatorPage</text>

  <!-- Phase 6 : WS subscribe B -->
  <rect class="bandPurple" x="20" y="908" width="1960" height="48" rx="10" ry="10" opacity="0.85"/>
  <text class="phase" x="38" y="930" fill="#7c3aed">PHASE 6 · RESPONDER WEBSOCKET SUBSCRIBE</text>
  <circle class="badgePurple" cx="38" cy="946" r="13"/>
  <text class="num" x="38" y="951" text-anchor="middle">14</text>
  <path class="arrPurple" d="M 1855 946 L 880 946"/>
  <text class="caption" x="1370" y="940" text-anchor="middle">GET /ws/:mailboxB  (HTTP→WSS upgrade) · PushHub subscribes mailboxB</text>

  <!-- Phase 7 : SAS verification -->
  <rect class="bandSlate" x="20" y="964" width="1960" height="44" rx="10" ry="10" opacity="0.75"/>
  <text class="phase" x="38" y="986" fill="#475569">PHASE 7 · SAS VERIFICATION (OUT-OF-BAND)</text>
  <circle class="badgeSlate" cx="38" cy="1000" r="13"/>
  <text class="num" x="38" y="1005" text-anchor="middle">15</text>
  <path class="arrSlate dashed" d="M 160 1000 L 1855 1000"/>
  <text class="caption" x="1000" y="994" text-anchor="middle">Users compare the 4-digit verification code on both screens — protects against MitM on the rendezvous channel</text>

  <!-- Phase 8 : SDP offer/answer -->
  <rect class="bandGreen" x="20" y="1016" width="1960" height="130" rx="10" ry="10" opacity="0.85"/>
  <text class="phase" x="38" y="1038" fill="#15803d">PHASE 8 · ENCRYPTED SDP OFFER / ANSWER  (AES-GCM via mailbox relay)</text>

  <!-- Step 16 : A sends offer -->
  <circle class="badgeGreen" cx="38" cy="1064" r="13"/>
  <text class="num" x="38" y="1069" text-anchor="middle">16</text>
  <path class="arrGreen" d="M 160 1064 L 860 1064"/>
  <text class="caption" x="510" y="1058" text-anchor="middle">A: createOffer → AES-GCM encrypt → POST /connection/send  { mailboxA, ciphertext_b64 }</text>

  <!-- Step 17 : redis rpush + WS to B -->
  <circle class="badgeGreen" cx="38" cy="1094" r="13"/>
  <text class="num" x="38" y="1099" text-anchor="middle">17</text>
  <path class="arrGreen" d="M 880 1094 L 1240 1094"/>
  <text class="captionSub" x="1060" y="1088" text-anchor="middle">RPUSH sig:mailbox_msgs:mailboxB</text>
  <path class="arrGreen dashed" d="M 880 1110 L 1855 1110"/>
  <text class="caption" x="1370" y="1126" text-anchor="middle">PushHub WS push → B :  encrypted offer   (B decrypts &amp; setRemoteDescription, then createAnswer)</text>

  <!-- Step 18 : B sends answer + WS back -->
  <circle class="badgeGreen" cx="38" cy="1140" r="13"/>
  <text class="num" x="38" y="1145" text-anchor="middle">18</text>
  <path class="arrGreen" d="M 1855 1140 L 880 1140"/>
  <text class="caption" x="1370" y="1134" text-anchor="middle">POST /connection/send  mailboxB + encrypted answer  →  RPUSH msgs:mailboxA  →  WS push → A  (A decrypts, setRemoteAnswer)</text>

  <!-- Phase 9 : ICE gathering + trickle -->
  <rect class="bandTeal" x="20" y="1154" width="1960" height="168" rx="10" ry="10" opacity="0.85"/>
  <text class="phase" x="38" y="1176" fill="#0891b2">PHASE 9 · ICE GATHERING + TRICKLE CANDIDATES</text>

  <!-- Step 19 : A STUN -->
  <circle class="badgeTeal" cx="38" cy="1204" r="13"/>
  <text class="num" x="38" y="1209" text-anchor="middle">19</text>
  <path class="arrTeal" d="M 160 1204 L 1540 1204"/>
  <text class="caption" x="850" y="1198" text-anchor="middle">A ↔ coturn : STUN Binding Request (UDP/3478)</text>
  <path class="arrTeal dashed" d="M 1540 1220 L 160 1220"/>
  <text class="captionSub" x="850" y="1236" text-anchor="middle">server-reflexive (srflx) candidate for A + host &amp; (if needed) relay candidates</text>

  <!-- Step 20 : B STUN -->
  <circle class="badgeTeal" cx="38" cy="1252" r="13"/>
  <text class="num" x="38" y="1257" text-anchor="middle">20</text>
  <path class="arrTeal" d="M 1855 1252 L 1560 1252"/>
  <text class="caption" x="1707" y="1246" text-anchor="middle">B ↔ coturn : STUN Binding</text>
  <path class="arrTeal dashed" d="M 1560 1268 L 1855 1268"/>
  <text class="captionSub" x="1707" y="1284" text-anchor="middle">srflx candidate for B</text>

  <!-- Step 21 : trickle ICE both ways -->
  <circle class="badgeTeal" cx="38" cy="1300" r="13"/>
  <text class="num" x="38" y="1305" text-anchor="middle">21</text>
  <path class="arrTeal" d="M 160 1300 L 860 1300"/>
  <path class="arrTeal" d="M 1855 1300 L 880 1300"/>
  <text class="caption" x="510" y="1294" text-anchor="middle">A → /connection/send : encrypted ICE</text>
  <text class="caption" x="1370" y="1294" text-anchor="middle">B → /connection/send : encrypted ICE</text>
  <path class="arrTeal dashed" d="M 880 1316 L 1855 1316"/>
  <path class="arrTeal dashed" d="M 860 1316 L 160 1316"/>
  <text class="captionSub" x="510" y="1332" text-anchor="middle">WS push : peer ICE → A · addIceCandidate</text>
  <text class="captionSub" x="1370" y="1332" text-anchor="middle">WS push : peer ICE → B · addIceCandidate</text>

  <!-- Phase 10 : WebRTC P2P -->
  <rect class="bandDark" x="20" y="1330" width="1960" height="150" rx="10" ry="10" opacity="0.7"/>
  <text class="phase" x="38" y="1352" fill="#166534">PHASE 10 · DIRECT WEBRTC PEER-TO-PEER ESTABLISHED</text>

  <!-- Step 22 : DTLS/SCTP handshake direct -->
  <circle class="badgeDark" cx="38" cy="1394" r="13"/>
  <text class="num" x="38" y="1399" text-anchor="middle">22</text>
  <path class="arrDark" d="M 170 1394 L 1855 1394"/>
  <text class="caption" x="1000" y="1384" text-anchor="middle">DTLS handshake + SCTP association — direct UDP path between A and B (bypasses Caddy / Axum / Redis)</text>
  <text class="captionSub" x="1000" y="1412" text-anchor="middle">encrypted DataChannel ready for file transfer &amp; screen sharing control messages</text>

  <!-- Step 23 : signaling teardown -->
  <circle class="badgeDark" cx="38" cy="1448" r="13"/>
  <text class="num" x="38" y="1453" text-anchor="middle">23</text>
  <path class="arrSlate" d="M 160 1448 L 860 1448"/>
  <path class="arrSlate" d="M 1855 1448 L 880 1448"/>
  <text class="caption" x="510" y="1442" text-anchor="middle">A → POST /connection/close (mailboxA)</text>
  <text class="caption" x="1370" y="1442" text-anchor="middle">B → POST /connection/close (mailboxB)</text>
  <text class="captionSub" x="1000" y="1468" text-anchor="middle">both mailboxes DEL from Redis · WS sockets closed · signaling role finished — direct WebRTC is the ongoing transport</text>

  <!-- Footer -->
  <text class="footer" x="1000" y="1520" text-anchor="middle">
    Legend:
    <tspan fill="#64748b" font-weight="700">  ■ startup / out-of-band</tspan>
    <tspan fill="#ea580c" font-weight="700">   ■ local crypto</tspan>
    <tspan fill="#2563eb" font-weight="700">   ■ HTTP signaling</tspan>
    <tspan fill="#7c3aed" font-weight="700">   ■ WebSocket push</tspan>
    <tspan fill="#15803d" font-weight="700">   ■ SDP relay</tspan>
    <tspan fill="#0891b2" font-weight="700">   ■ ICE / STUN</tspan>
    <tspan fill="#166534" font-weight="700">   ■ direct P2P WebRTC</tspan>
  </text>
  <text class="footer" x="1000" y="1542" text-anchor="middle">Dashed arrows = asynchronous responses / WebSocket deliveries · Solid arrows = synchronous HTTP requests or STUN binding probes</text>
</svg>
